# xmcd CD database file
#
# Track frame offsets:
#	150
#	13712
#	26656
#	39567
#	53908
#	65990
#	80126
#	91156
#	102276
#	115503
#
# Disc length: 1695 seconds
#
# Revision: 0
# Processed by: cddbd v1.5.2PL0 Copyright (c) Steve Scherf et al.
# Submitted via: CDex 1.70beta2
#
DISCID=7f069d0a
DTITLE=Ronnie Milsap - Where My Heart Is
DYEAR=1973
DGENRE=Country
TTITLE0=That Girl Who Waits On Tables
TTITLE1=I Hate You
TTITLE2=You're Stronger Than Me
TTITLE3=Branded Man
TTITLE4=Where Love Goes When It Dies
TTITLE5=Brothers, Strangers And Friends
TTITLE6=(All Together Now) Let's Fall Apart
TTITLE7=Comin' Down with Love
TTITLE8=Pass Me By (If You're Only Passing Through)
TTITLE9=You're Drivin' Me Out of Your Mind
EXTD=YEAR: 1973
EXTT0=
EXTT1=
EXTT2=
EXTT3=
EXTT4=
EXTT5=
EXTT6=
EXTT7=
EXTT8=
EXTT9=
PLAYORDER=
